# xmcd
#
# Track frame offsets:
#	150
#	17700
#	34309
#	51111
#	67071
#	91913
#	114694
#	131090
#	152857
#	173302
#	191325
#	209216
#	225359
#	243126
#	260707
#	282407
#	298560
#	322186
#
# Disc length: 4527 seconds
# Revision: 1
# Processed by: cddbd v1.5.2PL0 Copyright (c) Steve Scherf et al.
# Submitted via: dBpowerAMP V12.0
#
DISCID=0c11ad12
DTITLE=Ward Thomas - From Where We Stand
DYEAR=2015
DGENRE=Alt Folk
TTITLE0=Push for the Stride
TTITLE1=Way Back When
TTITLE2=Footnotes (Happy Ending)
TTITLE3=The Good and Right
TTITLE4=From Where I Stand
TTITLE5=Take That Train
TTITLE6=Guest List
TTITLE7=Try
TTITLE8=Wasted Words
TTITLE9=Company
TTITLE10=Celedonia
TTITLE11=Town Called Ugley
TTITLE12=Man in the Mirror
TTITLE13=Who We Are
TTITLE14=Push for the Stride [Live]
TTITLE15=Guest List [Live]
TTITLE16=Celedonia [Live]
TTITLE17=Town Called Ugley [Live]
EXTD=
EXTT0=
EXTT1=
EXTT2=
EXTT3=
EXTT4=
EXTT5=
EXTT6=
EXTT7=
EXTT8=
EXTT9=
EXTT10=
EXTT11=
EXTT12=
EXTT13=
EXTT14=
EXTT15=
EXTT16=
EXTT17=
PLAYORDER=
